# AST/ASF file generated using VICON BodyLanguage
# -----------------------------------------------
:version 1.10
:name VICON
:units
  mass 1.0
  length 0.45
  angle deg
:documentation
   .ast/.asf automatically generated from VICON data using
   VICON BodyBuilder and BodyLanguage model FoxedUp or BRILLIANT.MOD
:root
   order TX TY TZ RX RY RZ
   axis XYZ
   position 0 0 0  
   orientation 0 0 0 
:bonedata
  begin
     id 1 
     name lhipjoint
     direction 0.560651 -0.75055 0.34978 
     length 2.44936 
     axis 0 0 0  XYZ
  end
  begin
     id 2 
     name lfemur
     direction 0.34202 -0.939693 0  
     length 7.42139  
     axis 0 0 20  XYZ
    dof rx ry rz
    limits (-160.0 20.0)
           (-70.0 70.0)
           (-60.0 70.0)
  end
  begin
     id 3 
     name ltibia
     direction 0.34202 -0.939693 0   
     length 7.75674   
     axis 0 0 20   XYZ
    dof rx
    limits (-10.0 170.0)
  end
  begin
     id 4 
     name lfoot
     direction 0.0925879 -0.254383 0.962661   
     length 2.38688   
     axis -90 7.62852e-016 20   XYZ
    dof rx rz
    limits (-45.0 90.0)
           (-70.0 20.0)
  end
  begin
     id 5 
     name ltoes
     direction 1.53567e-011 -4.21973e-011 1   
     length 1.19228   
     axis -90 7.62852e-016 20   XYZ
    dof rx
    limits (-90.0 20.0)
  end
  begin
     id 6 
     name rhipjoint
     direction -0.540087 -0.762838 0.355506   
     length 2.4099  
     axis 0 0 0  XYZ 
  end
  begin
     id 7 
     name rfemur
     direction -0.34202 -0.939693 0   
     length 7.70794   
     axis 0 0 -20   XYZ
    dof rx ry rz
    limits (-160.0 20.0)
           (-70.0 70.0)
           (-70.0 60.0)
  end
  begin
     id 8 
     name rtibia
     direction -0.34202 -0.939693 0   
     length 7.66106   
     axis 0 0 -20   XYZ
    dof rx
    limits (-10.0 170.0)
 end
 begin
     id 9 
     name rfoot
     direction -0.0830975 -0.228308 0.970036   
     length 2.4989  
     axis -90 -7.62852e-016 -20   XYZ
    dof rx rz
    limits (-45.0 90.0)
           (-20.0 70.0)
  end
  begin
     id 10 
     name rtoes
     direction -1.53517e-011 -4.21842e-011 1   
     length 1.2498   
     axis -90 -7.62852e-016 -20   XYZ
    dof rx
    limits (-90.0 20.0)
  end
  begin
     id 11 
     name lowerback
     direction 0.0266356 0.99402 -0.105896   
     length 2.1545   
     axis 0 0 0   XYZ
    dof rx ry rz
    limits (-20.0 45.0)
           (-30.0 30.0)
           (-30.0 30.0)
  end
  begin
     id 12 
     name upperback
     direction 0.0130547 0.999192 0.0380027   
     length 2.1434   
     axis 0 0 0   XYZ
    dof rx ry rz
    limits (-20.0 45.0)
           (-30.0 30.0)
           (-30.0 30.0)
  end
  begin
     id 13 
     name thorax
     direction 0.000590299 0.996288 0.0860764   
     length 2.19049   
     axis 0 0 0   XYZ
    dof rx ry rz
    limits (-20.0 45.0)
           (-30.0 30.0)
           (-30.0 30.0)
  end
  begin
     id 14 
     name lowerneck
     direction -0.0432125 0.978219 0.203028   
     length 1.62441   
     axis 0 0 0   XYZ
    dof rx ry rz
    limits (-20.0 45.0)
           (-30.0 30.0)
           (-30.0 30.0)
  end
  begin
     id 15 
     name upperneck
     direction -0.0192309 0.991699 -0.127138   
     length 1.66666   
     axis 0 0 0   XYZ
    dof rx ry rz
    limits (-20.0 45.0)
           (-30.0 30.0)
           (-30.0 30.0)
  end
  begin
     id 16
     name head
     direction -0.00434499 0.997882 -0.0649107  
     length 1.67142  
     axis 0 0 0   XYZ
    dof rx ry rz
    limits (-20.0 45.0)
           (-30.0 30.0)
           (-30.0 30.0)
  end
  begin
     id 17 
     name lclavicle
     direction 0.970351 0.240904 -0.0196058  
     length 4.04862  
     axis 0 0 0   XYZ
    dof ry rz
    limits (-20.0 10.0)
           (0.0 20.0)
  end
  begin
     id 18 
     name lhumerus
     direction 1 -4.4896e-011 -1.40911e-018   
     length 5.58345   
     axis 180 -30 -90   XYZ
    dof rx ry rz
    limits (-60.0 90.0)
           (-90.0 90.0)
           (-90.0 90.0)
  end
  begin
     id 19
     name lradius
     direction 1 -4.48968e-011 5.88912e-028   
     length 3.71087   
     axis 180 -30 -90   XYZ
    dof rx
    limits (-10.0 170.0)
  end
  begin
     id 20
     name lwrist
     direction 1 -4.48955e-011 -8.83775e-028   
     length 1.85544   
     axis 5.52448e-016 90 90   XYZ
    dof ry
    limits (-180.0 0.0)
 end
  begin
     id 21 
     name lhand
     direction 1 -4.49035e-011 -1.76755e-027   
     length 0.562322   
     axis 1.12785e-015 90 90   XYZ
    dof rx rz
    limits (-90.0 90.0)
           (-45.0 45.0)
  end
  begin
     id 22 
     name lfingers
     direction 1 -4.48824e-011 -3.5351e-027   
     length 0.453359   
     axis 2.2557e-015 90 90   XYZ
    dof rx
    limits (0.0 90.0)
  end
  begin
     id 23
     name lthumb
     direction 0.707107 -6.34888e-011 0.707107   
     length 0.650935   
     axis -90 45 2.85299e-015   XYZ
    dof rx rz
    limits (-45.0 45.0)
           (-45.0 45.0)
  end
  begin
     id 24 
     name rclavicle
     direction -0.96165 0.268562 -0.0557131   
     length 4.05446  
     axis 0 0 0   XYZ 
    dof ry rz
    limits (-10.0 20.0)
           (-20.0 0.0)
  end
  begin
     id 25 
     name rhumerus
     direction -1 -4.48957e-011 -3.36329e-027  
     length 5.20357   
     axis 180 30 90   XYZ
    dof rx ry rz
    limits (-90.0 60.0)
           (-90.0 90.0)
           (-90.0 90.0)
  end
  begin
     id 26 
     name rradius
     direction -1 -4.48974e-011 4.51441e-027   
     length 3.64937   
     axis 180 30 90   XYZ
    dof rx
    limits (-10.0 170.0)
  end
  begin
     id 27 
     name rwrist
     direction -1 -4.4896e-011 -8.83775e-028   
     length 1.82468   
     axis 5.52448e-016 -90 -90   XYZ
    dof ry
    limits (-180.0 0.0)
  end
  begin
     id 28
     name rhand
     direction -1 -4.48996e-011 -1.76755e-027   
     length 0.617996   
     axis 1.12785e-015 -90 -90   XYZ
    dof rx rz
    limits (-90.0 90.0)
           (-45.0 45.0)
  end
  begin
     id 29
     name rfingers
     direction -1 -4.48957e-011 -3.5351e-027   
     length 0.498244   
     axis 2.2557e-015 -90 -90   XYZ
    dof rx
    limits (0.0 90.0)
  end
  begin
     id 30
     name rthumb
     direction -0.707107 -6.34931e-011 0.707107   
     length 0.715382   
     axis -90 -45 -2.85299e-015   XYZ
    dof rx rz
    limits (-45.0 45.0)
           (-45.0 45.0)
  end
:hierarchy
  begin
    root lhipjoint rhipjoint lowerback
    lhipjoint lfemur
    lfemur ltibia
    ltibia lfoot
    lfoot ltoes
    rhipjoint rfemur
    rfemur rtibia
    rtibia rfoot
    rfoot rtoes
    lowerback upperback
    upperback thorax
    thorax lowerneck lclavicle rclavicle
    lowerneck upperneck
    upperneck head
    lclavicle lhumerus
    lhumerus lradius
    lradius lwrist
    lwrist lhand lthumb
    lhand lfingers
    rclavicle rhumerus
    rhumerus rradius
    rradius rwrist
    rwrist rhand rthumb
    rhand rfingers
  end

#!OML:ASF H:\ManfredETheater\Project 1\Capture day 2\Session 1\Male1.ASF
:FULLY-SPECIFIED
:DEGREES
48
root 11.586 14.5871 27.6222 -152.101 -8.1535 187.937
lowerback 45.7769 3.59281 2.90503
upperback 10.8707 1.89857 2.46353
thorax -8.82968 -0.753283 0.590479
lowerneck -18.0258 2.62063 -4.82409
upperneck 5.06288 4.72297 -2.87897
head 4.36149 1.95939 0.272011
rclavicle 2.14687e-014 -6.36111e-015
rhumerus 31.9456 13.4818 -65.5568
rradius 59.0821
rwrist -4.55798
rhand -33.6902 -0.777444
rfingers 7.12502
rthumb -6.88049 -30.6456
lclavicle 2.14687e-014 -6.36111e-015
lhumerus 9.32637 -0.354701 86.9175
lradius 93.4121
lwrist -0.00518612
lhand -24.9697 -3.57378
lfingers 7.12502
lthumb 1.54084 26.4004
rfemur -42.313 -2.56686 22.7614
rtibia 80.4702
rfoot -40.0808 -7.56608
rtoes -36.2748
lfemur -86.7283 6.96146 1.90223
ltibia 79.5897
lfoot -12.3339 -14.2563
ltoes -18.0362
49
root 11.3462 14.6275 27.2715 -150.417 -7.21467 188.582
lowerback 45.6817 3.76879 2.6967
upperback 10.8292 2.0275 2.39354
thorax -8.86061 -0.681127 0.563533
lowerneck -18.2205 2.77136 -4.73233
upperneck 4.96079 4.91227 -2.93873
head 4.36144 2.04986 0.256792
rclavicle -3.57812e-014 7.85199e-015
rhumerus 34.8275 13.3994 -64.7665
rradius 58.4579
rwrist -4.51313
rhand -34.0212 -0.828142
rfingers 7.12502
rthumb -7.19998 -30.6857
lclavicle -3.57812e-014 7.85199e-015
lhumerus 11.4236 -0.171799 86.2477
lradius 93.7685
lwrist 0.025953
lhand -24.7695 -3.34999
lfingers 7.12502
lthumb 1.73417 26.6227
rfemur -42.1219 -2.29069 22.0931
rtibia 78.5165
rfoot -39.4664 -6.15729
rtoes -36.6521
lfemur -87.2758 7.77353 1.49208
ltibia 80.8656
lfoot -13.9256 -13.7762
ltoes -17.3092
50
root 11.1065 14.6853 26.9134 -148.649 -6.41218 189.279
lowerback 45.591 3.92632 2.53102
upperback 10.7665 2.17203 2.37786
thorax -8.91681 -0.600028 0.566513
lowerneck -18.3913 2.91032 -4.61701
upperneck 4.82619 5.07711 -3.0126
head 4.34888 2.12853 0.230854
rclavicle 2.5842e-014 1.00386e-014
rhumerus 37.6329 13.2339 -64.0094
rradius 57.8008
rwrist -4.52639
rhand -34.3785 -0.92432
rfingers 7.12502
rthumb -7.54488 -30.7698
lclavicle 2.5842e-014 1.00386e-014
lhumerus 13.5119 -0.00743811 85.5463
lradius 94.0621
lwrist 0.0974478
lhand -24.5559 -3.10002
lfingers 7.12502
lthumb 1.94045 26.8709
rfemur -41.8693 -2.16287 21.5508
rtibia 76.1608
rfoot -38.6806 -4.67324
rtoes -36.9159
lfemur -87.7533 8.47364 1.14983
ltibia 81.8264
lfoot -15.4267 -13.3285
ltoes -16.5342
51
root 10.8663 14.7597 26.5459 -146.841 -5.72819 190.035
lowerback 45.5458 4.08397 2.41157
upperback 10.6882 2.34981 2.41791
thorax -9.00299 -0.505072 0.591703
lowerneck -18.5175 3.03711 -4.47042
upperneck 4.65255 5.21484 -3.11186
head 4.31927 2.19392 0.188827
rclavicle -3.97569e-016 1.80894e-014
rhumerus 40.3443 12.9863 -63.2773
rradius 57.125
rwrist -4.53764
rhand -34.7246 -1.05421
rfingers 7.12502
rthumb -7.879 -30.8874
lclavicle -3.97569e-016 1.80894e-014
lhumerus 15.6016 0.13361 84.817
lradius 94.2692
lwrist 0.209153
lhand -24.3376 -2.85523
lfingers 7.12502
lthumb 2.15131 27.1137
rfemur -41.4952 -2.17201 21.144
rtibia 73.4027
rfoot -37.678 -3.085
rtoes -36.9709
lfemur -88.0498 9.06279 0.924338
ltibia 82.4506
lfoot -16.916 -12.9451
ltoes -15.8278
52
root 10.6246 14.8491 26.1674 -145.028 -5.14214 190.846
lowerback 45.58 4.25307 2.33496
upperback 10.5957 2.56808 2.50803
thorax -9.12695 -0.395046 0.631536
lowerneck -18.594 3.14828 -4.29326
upperneck 4.44762 5.32108 -3.23226
head 4.27418 2.24412 0.131716
rclavicle -2.14687e-014 8.74653e-015
rhumerus 42.944 12.6614 -62.5805
rradius 56.4344
rwrist -4.45552
rhand -35.0364 -1.13234
rfingers 7.12502
rthumb -8.17986 -30.954
lclavicle -2.14687e-014 8.74653e-015
lhumerus 17.6872 0.253971 84.0508
lradius 94.3763
lwrist 0.354394
lhand -24.1806 -2.61603
lfingers 7.12502
lthumb 2.30292 27.3513
rfemur -40.9624 -2.30918 20.8648
rtibia 70.2597
rfoot -36.383 -1.43156
rtoes -36.708
lfemur -88.0833 9.54442 0.815522
ltibia 82.7312
lfoot -18.4772 -12.5932
ltoes -15.2656
53
root 10.3804 14.9512 25.7767 -143.234 -4.64243 191.697
lowerback 45.7184 4.43085 2.30749
upperback 10.4857 2.82365 2.63374
thorax -9.29799 -0.272116 0.668189
lowerneck -18.6202 3.02968 -4.01786
upperneck 4.21884 5.44241 -3.3746
head 4.22067 2.45485 0.0644847
rclavicle 3.97569e-015 1.09829e-014
rhumerus 45.4164 12.2751 -61.9184
rradius 55.7319
rwrist -4.21361
rhand -35.3528 -1.14328
rfingers 7.12502
rthumb -8.48523 -30.9528
lclavicle 3.97569e-015 1.09829e-014
lhumerus 19.7662 0.359491 83.2369
lradius 94.3647
lwrist 0.53146
lhand -24.0818 -2.39217
lfingers 7.12502
lthumb 2.39832 27.5741
rfemur -40.2546 -2.57934 20.6989
rtibia 66.7819
rfoot -34.7299 0.0861034
rtoes -36.0735
lfemur -87.8241 9.91377 0.788015
ltibia 82.669
lfoot -20.1306 -12.2393
ltoes -14.6904
54
root 10.1326 15.0643 25.374 -141.465 -4.25553 192.54
lowerback 45.7983 0.958586 -1.37502
upperback 10.5291 4.72373 2.13628
thorax -9.4837 3.47179 0.680459
lowerneck -18.6217 3.10043 -3.78429
upperneck 4.01991 5.48911 -3.50638
head 4.16875 2.48141 -0.0108397
rclavicle 2.3059e-014 -2.88735e-014
rhumerus 47.7443 11.8377 -61.2998
rradius 55.0363
rwrist -3.819
rhand -35.6464 -1.07769
rfingers 7.12502
rthumb -8.76862 -30.8755
lclavicle 2.3059e-014 -2.88735e-014
lhumerus 21.8349 0.459313 82.3671
lradius 94.2257
lwrist 0.745762
lhand -24.0535 -2.16494
lfingers 7.12502
lthumb 2.42567 27.801
rfemur -39.3821 -3.02018 20.6199
rtibia 63.0488
rfoot -32.7687 1.05542
rtoes -35.1495
lfemur -87.2956 10.1129 0.788224
ltibia 82.2613
lfoot -21.8453 -11.8166
ltoes -13.9756
55
root 9.88042 15.1829 24.9601 -139.675 -4.02649 193.305
lowerback 46.103 1.10084 -1.1474
upperback 10.3719 4.92484 2.3025
thorax -9.75485 3.51139 0.639227
lowerneck -18.6009 3.15811 -3.51706
upperneck 3.85334 5.50989 -3.64234
head 4.12482 2.494 -0.0949082
rclavicle -2.06736e-014 5.66536e-015
rhumerus 49.9229 11.3746 -60.703
rradius 54.3397
rwrist -3.30057
rhand -35.8857 -0.993456
rfingers 7.12502
rthumb -8.99948 -30.7815
lclavicle -2.06736e-014 5.66536e-015
lhumerus 23.8798 0.56207 81.421
lradius 93.9576
lwrist 0.990555
lhand -24.0785 -1.9281
lfingers 7.12502
lthumb 2.40152 28.0381
rfemur -38.428 -3.69398 20.5971
rtibia 59.1848
rfoot -30.701 1.15533
rtoes -34.0114
lfemur -86.6215 10.0855 0.742714
ltibia 81.532
lfoot -23.5641 -11.2422
ltoes -13.1141
56
root 9.62446 15.3027 24.5375 -137.833 -4.00327 193.934
lowerback 46.4122 1.10924 -0.735686
upperback 10.1788 5.04701 2.46088
thorax -10.0554 3.5131 0.529898
lowerneck -18.568 3.20404 -3.23627
upperneck 3.73779 5.51013 -3.76243
head 4.09491 2.49511 -0.17759
rclavicle -1.03368e-014 2.2003e-014
rhumerus 51.9422 10.9007 -60.1156
rradius 53.6661
rwrist -2.72323
rhand -36.2584 -0.81907
rfingers 7.12502
rthumb -9.35912 -30.5913
lclavicle -1.03368e-014 2.2003e-014
lhumerus 25.9011 0.680377 80.3967
lradius 93.5588
lwrist 1.22978
lhand -24.1442 -1.63716
lfingers 7.12502
lthumb 2.33814 28.3298
rfemur -37.4701 -4.62772 20.6145
rtibia 55.3368
rfoot -28.6938 0.220909
rtoes -32.5235
lfemur -85.9212 9.78888 0.613348
ltibia 80.5112
lfoot -25.2087 -10.4795
ltoes -12.0897
57
root 9.36727 15.421 24.109 -135.901 -4.18934 194.386
lowerback 46.6616 0.970389 -0.132814
upperback 9.94926 5.07413 2.60598
thorax -10.3671 3.46788 0.354151
lowerneck -18.5454 3.24002 -2.93768
upperneck 3.68845 5.49433 -3.87836
head 4.08756 2.48561 -0.262282
rclavicle 7.95139e-016 -4.84538e-015
rhumerus 53.8122 10.4312 -59.5164
rradius 53.0238
rwrist -2.17386
rhand -36.5882 -0.714298
rfingers 7.12502
rthumb -9.67733 -30.472
lclavicle 7.95139e-016 -4.84538e-015
lhumerus 27.9069 0.828928 79.2883
lradius 93.025
lwrist 1.41815
lhand -24.1946 -1.29267
lfingers 7.12502
lthumb 2.28939 28.6748
rfemur -36.6063 -5.76482 20.6427
rtibia 51.6766
rfoot -26.884 -1.70645
rtoes -30.4812
lfemur -85.2958 9.23664 0.384922
ltibia 79.2261
lfoot -26.6901 -9.5564
ltoes -10.9886
58
root 9.11163 15.5363 23.6772 -133.857 -4.56923 194.64
lowerback 46.7946 0.684209 0.652753
upperback 9.68377 4.99773 2.72988
thorax -10.6744 3.37062 0.114644
lowerneck -18.5047 3.27378 -2.60695
upperneck 3.66542 5.46852 -4.00421
head 4.0867 2.46994 -0.355971
rclavicle -1.51076e-014 -3.24764e-014
rhumerus 55.5333 9.98626 -58.9089
rradius 52.425
rwrist -1.71322
rhand -36.8993 -0.668019
rfingers 7.12502
rthumb -9.97749 -30.4115
lclavicle -1.51076e-014 -3.24764e-014
lhumerus 29.8964 1.02497 78.0761
lradius 92.357
lwrist 1.50934
lhand -24.22 -0.902622
lfingers 7.12502
lthumb 2.26488 29.0651
rfemur -35.9179 -7.03286 20.6551
rtibia 48.3801
rfoot -25.3865 -4.28389
rtoes -27.9399
lfemur -84.8078 8.46282 0.0677745
ltibia 77.7091
lfoot -27.9331 -8.53558
ltoes -9.84908
59
root 8.86145 15.6487 23.2445 -131.674 -5.07835 194.723
lowerback 46.7399 0.316016 1.54914
upperback 9.39854 4.86063 2.84863
thorax -10.9474 3.24039 -0.151495
lowerneck -18.4449 3.29806 -2.25801
upperneck 3.64605 5.42699 -4.14426
head 4.08481 2.4461 -0.458557
rclavicle -2.62396e-014 1.74434e-014
rhumerus 57.1332 9.56009 -58.2525
rradius 51.8748
rwrist -1.39479
rhand -37.1514 -0.695459
rfingers 7.12502
rthumb -10.2207 -30.4272
lclavicle -2.62396e-014 1.74434e-014
lhumerus 31.884 1.27863 76.7851
lradius 91.5583
lwrist 1.44339
lhand -24.2063 -0.533948
lfingers 7.12502
lthumb 2.27811 29.4336
rfemur -35.4948 -8.2799 20.6266
rtibia 45.6185
rfoot -24.2812 -7.03772
rtoes -24.8917
lfemur -84.4892 7.5721 -0.308325
ltibia 75.9834
lfoot -28.8715 -7.52028
ltoes -8.72565
60
root 8.62084 15.7598 22.8128 -129.342 -5.60988 194.697
lowerback 46.4627 -0.036084 2.43429
upperback 9.1077 4.71741 2.96922
thorax -11.1685 3.10287 -0.399584
lowerneck -18.3921 3.31342 -1.92391
upperneck 3.63481 5.37782 -4.27907
head 4.08571 2.41838 -0.557741
rclavicle -2.8625e-014 -2.71341e-014
rhumerus 58.6448 9.15309 -57.5383
rradius 51.371
rwrist -1.20102
rhand -37.3853 -0.747679
rfingers 7.12502
rthumb -10.4463 -30.4681
lclavicle -2.8625e-014 -2.71341e-014
lhumerus 33.8842 1.6147 75.4126
lradius 90.6183
lwrist 1.15656
lhand -24.2355 -0.230302
lfingers 7.12502
lthumb 2.24989 29.7376
rfemur -35.4064 -9.32567 20.5207
rtibia 43.5363
rfoot -23.5675 -9.53719
rtoes -21.6565
lfemur -84.3263 6.70824 -0.723866
ltibia 74.0753
lfoot -29.4821 -6.5669
ltoes -7.8006
61
root 8.39251 15.8712 22.3828 -126.865 -6.08017 194.63
lowerback 45.9588 -0.287246 3.20676
upperback 8.82225 4.61914 3.09878
thorax -11.3284 2.98346 -0.595121
lowerneck -18.3374 3.31893 -1.59703
upperneck 3.61234 5.31904 -4.4272
head 4.08273 2.38576 -0.660935
rclavicle 1.90833e-014 7.95139e-016
rhumerus 60.099 8.75742 -56.756
rradius 50.902
rwrist -1.07686
rhand -37.4801 -0.890477
rfingers 7.12502
rthumb -10.5378 -30.6063
lclavicle 1.90833e-014 7.95139e-016
lhumerus 35.9015 2.04341 73.9772
lradius 89.5389
lwrist 0.645149
lhand -24.3498 -0.0812166
lfingers 7.12502
lthumb 2.13954 29.8878
rfemur -35.6863 -10.0344 20.3073
rtibia 42.2314
rfoot -23.1935 -11.4295
rtoes -18.9211
lfemur -84.2844 5.98422 -1.15391
ltibia 72.0015
lfoot -29.746 -5.77707
ltoes -7.03405
62
root 8.17774 15.9845 21.9546 -124.258 -6.43254 194.587
lowerback 45.2468 -0.374713 3.78575
upperback 8.5465 4.60545 3.24658
thorax -11.4286 2.90285 -0.7067
lowerneck -18.244 3.30507 -1.3132
upperneck 3.54362 5.24068 -4.55479
head 4.05712 2.34648 -0.753774
rclavicle 1.27222e-014 3.8763e-015
rhumerus 61.5247 8.36377 -55.8974
rradius 50.4403
rwrist -0.943821
rhand -37.4473 -1.05966
rfingers 7.12502
rthumb -10.5062 -30.7771
lclavicle 1.27222e-014 3.8763e-015
lhumerus 37.9252 2.57011 72.5029
lradius 88.3261
lwrist -0.0781776
lhand -24.6344 -0.125754
lfingers 7.12502
lthumb 1.8647 29.8458
rfemur -36.3366 -10.345 19.9742
rtibia 41.7382
rfoot -23.0593 -12.507
rtoes -17.2463
lfemur -84.3247 5.48356 -1.58258
ltibia 69.7733
lfoot -29.6684 -5.20708
ltoes -6.42541
